<?xml version="1.0" encoding="utf-8"?>
<!-- Generator: Adobe Illustrator 24.0.1, SVG Export Plug-In . SVG Version: 6.00 Build 0)  -->
<svg version="1.1" id="Layer_1" xmlns="http://www.w3.org/2000/svg" xmlns:xlink="http://www.w3.org/1999/xlink" x="0px" y="0px"
	 viewBox="0 0 600 600" style="enable-background:new 0 0 600 600;" xml:space="preserve">
<style type="text/css">
	.st0{fill:#009ABB;}
	.st1{fill:#007C92;}
</style>
<g>
	<g>
		<path class="st0" d="M245.1,300.5c-74.2,0-134.5-60.3-134.5-134.5S171,31.5,245.1,31.5S379.6,91.8,379.6,166
			S319.3,300.5,245.1,300.5z M245.1,32.5c-73.6,0-133.5,59.9-133.5,133.5s59.9,133.5,133.5,133.5h0c73.6,0,133.5-59.9,133.5-133.5
			S318.7,32.5,245.1,32.5z"/>
	</g>
	<g>
		<path class="st1" d="M485.1,568.5H114.9c-15.6,0-28.2-11.8-28.2-26.4V256.4c0-14.6,12.6-26.4,28.2-26.4h311.8
			c25.6,0,47.3,17.8,50.5,41.6l36,267.3C515.3,554.6,502.1,568.5,485.1,568.5z"/>
	</g>
	
		<image style="overflow:visible;" width="368" height="501" xlink:href="../../../../References/NeuroGen Web/dummy/transparent-doctor.png"  transform="matrix(1 0 0 1 121.1189 67)">
	</image>
</g>
</svg>
