<?xml version="1.0" encoding="utf-8"?>
<!-- Generator: Adobe Illustrator 24.0.1, SVG Export Plug-In . SVG Version: 6.00 Build 0)  -->
<svg version="1.1" id="Layer_1" xmlns="http://www.w3.org/2000/svg" xmlns:xlink="http://www.w3.org/1999/xlink" x="0px" y="0px"
	 viewBox="0 0 13.9 14" style="enable-background:new 0 0 13.9 14;" xml:space="preserve">
<style type="text/css">
	.st0{opacity:0.9;fill:url(#SVGID_1_);enable-background:new    ;}
	.st1{fill-rule:evenodd;clip-rule:evenodd;fill:#FFFFFF;}
</style>
<g>
	
		<linearGradient id="SVGID_1_" gradientUnits="userSpaceOnUse" x1="267.3289" y1="670.5558" x2="277.1924" y2="660.6924" gradientTransform="matrix(0.7071 0.7071 0.7071 -0.7071 -656.2283 285.1218)">
		<stop  offset="0" style="stop-color:#3C5A99"/>
		<stop  offset="1" style="stop-color:#2B1E99"/>
	</linearGradient>
	<path class="st0" d="M4.8,13.1l-3.9-4C-0.3,8-0.3,6,0.9,4.8l3.9-3.9c1.2-1.2,3.1-1.2,4.3,0L13,4.8c1.2,1.2,1.2,3.1,0,4.3L9.1,13
		C7.9,14.3,6,14.3,4.8,13.1z"/>
	<path class="st1" d="M6.1,7v3.2c0,0,0,0.1,0.1,0.1h1.2c0,0,0.1,0,0.1-0.1V7h0.9c0,0,0.1,0,0.1-0.1l0.1-1c0,0,0-0.1-0.1-0.1h-1V5.2
		c0-0.2,0.1-0.3,0.3-0.3h0.7c0,0,0.1,0,0.1-0.1v-1c0,0,0-0.1-0.1-0.1H7.3c-0.6,0-1.2,0.5-1.2,1.2v0.9H5.5c0,0-0.1,0-0.1,0.1v1
		c0,0,0,0.1,0.1,0.1L6.1,7L6.1,7z"/>
</g>
</svg>
