<?xml version="1.0" encoding="utf-8"?>
<!-- Generator: Adobe Illustrator 24.0.1, SVG Export Plug-In . SVG Version: 6.00 Build 0)  -->
<svg version="1.1" id="Layer_1" xmlns="http://www.w3.org/2000/svg" xmlns:xlink="http://www.w3.org/1999/xlink" x="0px" y="0px"
	 viewBox="0 0 13.9 13.8" style="enable-background:new 0 0 13.9 13.8;" xml:space="preserve">
<style type="text/css">
	.st0{fill:url(#SVGID_1_);}
	.st1{fill:#FFFFFF;}
</style>
<g>
	
		<linearGradient id="SVGID_1_" gradientUnits="userSpaceOnUse" x1="262.6427" y1="681.7697" x2="272.5063" y2="671.9062" gradientTransform="matrix(0.7071 0.7071 0.7071 -0.7071 -660.844 296.2647)">
		<stop  offset="0" style="stop-color:#007AB5"/>
		<stop  offset="1" style="stop-color:#0046E5"/>
	</linearGradient>
	<path class="st0" d="M4.8,13L0.9,9.1c-1.2-1.2-1.2-3.1,0-4.3l3.9-3.9c1.2-1.2,3.1-1.2,4.3,0L13,4.8c1.2,1.2,1.2,3.1,0,4.3L9.1,13
		C8,14.1,6,14.1,4.8,13z"/>
	<path class="st1" d="M4.6,5.8h1.1v3.6H4.6V5.8z M5.1,4c0.4,0,0.7,0.3,0.7,0.7c0,0.4-0.3,0.7-0.7,0.7c-0.4,0-0.7-0.3-0.7-0.7
		C4.5,4.3,4.8,4,5.1,4"/>
	<path class="st1" d="M6.4,5.8h1.1v0.5l0,0C7.7,6,8,5.7,8.6,5.7c1.1,0,1.4,0.8,1.4,1.7v2H8.9V7.7c0-0.4,0-1-0.6-1S7.6,7.2,7.6,7.6
		v1.8H6.5L6.4,5.8L6.4,5.8z"/>
</g>
</svg>
