<?xml version="1.0" encoding="utf-8"?>
<!-- Generator: Adobe Illustrator 24.0.1, SVG Export Plug-In . SVG Version: 6.00 Build 0)  -->
<svg version="1.1" id="Layer_1" xmlns="http://www.w3.org/2000/svg" xmlns:xlink="http://www.w3.org/1999/xlink" x="0px" y="0px"
	 viewBox="0 0 13.9 13.9" style="enable-background:new 0 0 13.9 13.9;" xml:space="preserve">
<style type="text/css">
	.st0{fill:url(#SVGID_1_);}
	.st1{fill:#F1F2F2;}
</style>
<g>
	
		<linearGradient id="SVGID_1_" gradientUnits="userSpaceOnUse" x1="252.3413" y1="699.6182" x2="263.9959" y2="699.6182" gradientTransform="matrix(0.7071 0.7071 0.7071 -0.7071 -670.3168 319.1333)">
		<stop  offset="0" style="stop-color:#395976"/>
		<stop  offset="1" style="stop-color:#233976"/>
	</linearGradient>
	<path class="st0" d="M4.8,13.1l-3.9-4c-1.2-1.2-1.2-3.1,0-4.3l3.9-3.9c1.2-1.2,3.1-1.2,4.3,0L13,4.8c1.2,1.2,1.2,3.1,0,4.3L9.1,13
		C7.9,14.2,6,14.2,4.8,13.1z"/>
	<path class="st1" d="M7.2,5.3V3.9H6.3c0,0.1,0,0.1,0,0.2v0.1C6.2,4.7,5.9,5.1,5.5,5.3C5.4,5.4,5.2,5.4,5.1,5.4v1.1h0.7
		c0,1.6,0,2.4,0,2.4V9c0.1,0.7,0.4,1.1,1.1,1.3c0.3,0.1,0.5,0.1,0.8,0.1c0.4,0,0.7-0.1,1.1-0.2V8.8C8.6,8.9,8.4,8.9,8.2,9
		C7.9,9.1,7.6,9,7.4,8.8L7.3,8.7c0-0.2,0-0.3,0-0.5V6.4h1.4V5.3H7.2z"/>
</g>
</svg>
