<?xml version="1.0" encoding="utf-8"?>
<!-- Generator: Adobe Illustrator 24.0.1, SVG Export Plug-In . SVG Version: 6.00 Build 0)  -->
<svg version="1.1" id="Layer_1" xmlns="http://www.w3.org/2000/svg" xmlns:xlink="http://www.w3.org/1999/xlink" x="0px" y="0px"
	 viewBox="0 0 13.9 13.9" style="enable-background:new 0 0 13.9 13.9;" xml:space="preserve">
<style type="text/css">
	.st0{fill:url(#SVGID_1_);}
	.st1{fill:#FFFFFF;}
</style>
<g>
	
		<linearGradient id="SVGID_1_" gradientUnits="userSpaceOnUse" x1="257.933" y1="693.1484" x2="267.7965" y2="683.2849" gradientTransform="matrix(0.7071 0.7071 0.7071 -0.7071 -665.5597 307.649)">
		<stop  offset="0" style="stop-color:#33CCFF"/>
		<stop  offset="1" style="stop-color:#337FFF"/>
	</linearGradient>
	<path class="st0" d="M4.8,13L0.9,9.1c-1.2-1.2-1.2-3.1,0-4.3l3.9-3.9c1.2-1.2,3.1-1.2,4.3,0L13,4.8c1.2,1.2,1.2,3.1,0,4.3L9.1,13
		C7.9,14.2,6,14.2,4.8,13z"/>
	<path class="st1" d="M10.1,4.9C9.9,5,9.7,5,9.5,5.1c0.1,0,0.3-0.2,0.3-0.3C9.9,4.7,10,4.6,10,4.4l0,0l0,0C9.8,4.5,9.5,4.6,9.2,4.7
		c0,0,0,0-0.1,0c0,0,0,0-0.1-0.1S8.8,4.4,8.6,4.4C8.4,4.3,8.2,4.3,8,4.3c-0.2,0-0.4,0.1-0.5,0.2C7.3,4.6,7.2,4.7,7.1,4.9
		c0,0-0.1,0.2-0.2,0.4c0,0.2,0,0.4,0,0.5l0,0C5.9,5.6,5,5.3,4.3,4.5c0,0,0,0-0.1,0C3.9,5,4,5.7,4.4,6.1c0.1,0,0.1,0.1,0.2,0.1
		c0,0-0.3,0-0.5-0.1l0,0c0,0,0,0.1,0,0.2c0.1,0.5,0.4,0.9,0.8,1.1c0.1,0,0.1,0,0.2,0.1c-0.1,0-0.2,0-0.5,0l0,0
		c0.2,0.6,0.7,0.8,1,0.9h0.1l0,0C5.6,8.6,5.2,8.7,5,8.8C4.6,8.9,4.3,8.9,3.9,8.9c-0.1,0-0.1,0-0.1,0l0,0C3.9,8.9,3.9,9,4,9
		c0.2,0.1,0.5,0.2,0.7,0.3C6,9.7,7.5,9.4,8.4,8.4c0.8-0.8,1-1.8,1-2.9c0,0,0-0.1,0.1-0.1C9.7,5.3,9.9,5.1,10.1,4.9
		C10.2,4.9,10.2,4.9,10.1,4.9C10.2,4.9,10.2,4.9,10.1,4.9C10.2,4.9,10.2,4.9,10.1,4.9z"/>
</g>
</svg>
